<?xml version="1.0" encoding="UTF-8" standalone="no"?>
<!-- Created with Inkscape (http://www.inkscape.org/) -->

<svg
   xmlns:dc="http://purl.org/dc/elements/1.1/"
   xmlns:cc="http://creativecommons.org/ns#"
   xmlns:rdf="http://www.w3.org/1999/02/22-rdf-syntax-ns#"
   xmlns:svg="http://www.w3.org/2000/svg"
   xmlns="http://www.w3.org/2000/svg"
   xmlns:sodipodi="http://sodipodi.sourceforge.net/DTD/sodipodi-0.dtd"
   xmlns:inkscape="http://www.inkscape.org/namespaces/inkscape"
   width="210mm"
   height="297mm"
   id="svg2"
   version="1.1"
   inkscape:version="0.48.3.1 r9886"
   sodipodi:docname="icons.svg">
  <defs
     id="defs4" />
  <sodipodi:namedview
     id="base"
     pagecolor="#ffffff"
     bordercolor="#666666"
     borderopacity="1.0"
     inkscape:pageopacity="0.0"
     inkscape:pageshadow="2"
     inkscape:zoom="1.4"
     inkscape:cx="438.6715"
     inkscape:cy="433.05575"
     inkscape:document-units="px"
     inkscape:current-layer="layer1"
     showgrid="false"
     showguides="true"
     inkscape:guide-bbox="true"
     inkscape:window-width="1280"
     inkscape:window-height="776"
     inkscape:window-x="0"
     inkscape:window-y="24"
     inkscape:window-maximized="1"
     guidetolerance="5">
    <sodipodi:guide
       orientation="0,1"
       position="116.42008,1010.0263"
       id="guide3828" />
    <sodipodi:guide
       orientation="0,1"
       position="182.14286,898.57143"
       id="guide3830" />
  </sodipodi:namedview>
  <metadata
     id="metadata7">
    <rdf:RDF>
      <cc:Work
         rdf:about="">
        <dc:format>image/svg+xml</dc:format>
        <dc:type
           rdf:resource="http://purl.org/dc/dcmitype/StillImage" />
        <dc:title />
      </cc:Work>
    </rdf:RDF>
  </metadata>
  <g
     inkscape:label="Ebene 1"
     inkscape:groupmode="layer"
     id="layer1">
    <flowRoot
       xml:space="preserve"
       id="flowRoot3011"
       style="font-size:40px;font-style:normal;font-weight:normal;line-height:125%;letter-spacing:0px;word-spacing:0px;fill:#000000;fill-opacity:1;stroke:none;font-family:Sans"><flowRegion
         id="flowRegion3013"><rect
           id="rect3015"
           width="19.697975"
           height="7.5761442"
           x="224.25386"
           y="532.63867"
           style="font-size:40px" /></flowRegion><flowPara
         id="flowPara3017"
         style="font-size:40px">!</flowPara></flowRoot>    <flowRoot
       xml:space="preserve"
       id="flowRoot3019"
       style="fill:black;stroke:none;stroke-opacity:1;stroke-width:1px;stroke-linejoin:miter;stroke-linecap:butt;fill-opacity:1;font-family:Sans;font-style:normal;font-weight:normal;font-size:40px;line-height:125%;letter-spacing:0px;word-spacing:0px"><flowRegion
         id="flowRegion3021"><rect
           id="rect3023"
           width="70.710678"
           height="121.72338"
           x="226.27417"
           y="427.58282"
           style="font-size:40px" /></flowRegion><flowPara
         id="flowPara3025" /></flowRoot>    <g
       id="g2999"
       transform="matrix(0.91507099,0,0,0.91507099,-265.74295,-379.9922)"
       style="fill:#666666"
       inkscape:export-filename="/home/peter/workspace/android-studio/illumina/resources/gfx/battery_full_light.png"
       inkscape:export-xdpi="120.98782"
       inkscape:export-ydpi="120.98782">
      <path
         inkscape:connector-curvature="0"
         id="rect2985"
         d="m 360.5,461.5625 c -2.69133,0 -4.875,2.18367 -4.875,4.875 l 0,2.40625 -12.75,0 c -5.3738,0 -9.71875,4.3137 -9.71875,9.6875 l 0,95.25 c 0,5.3738 4.34495,9.71875 9.71875,9.71875 l 58.375,0 c 5.3738,0 9.6875,-4.34495 9.6875,-9.71875 l 0,-95.25 c 0,-5.3738 -4.3137,-9.6875 -9.6875,-9.6875 l -12.78125,0 0,-2.40625 c 0,-2.69133 -2.18367,-4.875 -4.875,-4.875 l -23.09375,0 z m -11.1875,16.34375 45.5,0 c 4.18737,0 7.5625,3.37513 7.5625,7.5625 l 0,81.8125 c 0,4.18738 -3.37513,7.5625 -7.5625,7.5625 l -45.5,0 c -4.18738,0 -7.5625,-3.37512 -7.5625,-7.5625 l 0,-81.8125 c 0,-4.18737 3.37512,-7.5625 7.5625,-7.5625 z"
         style="fill:#666666;stroke:none" />
      <path
         inkscape:connector-curvature="0"
         id="rect2994"
         d="m 354.80182,486.93873 34.49084,0 c 2.17043,0 3.91775,1.74732 3.91775,3.91775 l 0,71.10888 c 0,2.17042 -1.74732,3.91774 -3.91775,3.91774 l -34.49084,0 c -2.17043,0 -3.91774,-1.74732 -3.91774,-3.91774 l 0,-71.10888 c 0,-2.17043 1.74731,-3.91775 3.91774,-3.91775 z"
         style="fill:#666666;fill-opacity:1;stroke:none"
         sodipodi:nodetypes="sssssssss" />
    </g>
    <path
       style="fill:#666666;stroke:none"
       d="m 173.94833,42.370256 c -2.46276,0 -4.46097,1.99821 -4.46097,4.46097 l 0,2.20189 -11.66716,0 c -4.9174,0 -8.89334,3.94734 -8.89334,8.86475 l 0,87.160514 c 0,4.91741 3.97594,8.89335 8.89334,8.89335 l 53.41727,0 c 4.91741,0 8.86475,-3.97594 8.86475,-8.89335 l 0,-87.160514 c 0,-4.91741 -3.94734,-8.86475 -8.86475,-8.86475 l -11.69575,0 0,-2.20189 c 0,-2.46276 -1.99821,-4.46097 -4.46097,-4.46097 z m -10.23736,14.95569 41.63573,0 c 3.83174,0 6.92022,3.08848 6.92022,6.92023 l 0,74.864244 c 0,3.83175 -3.08848,6.92022 -6.92022,6.92022 l -41.63573,0 c -3.83175,0 -6.92022,-3.08847 -6.92022,-6.92022 l 0,-74.864244 c 0,-3.83175 3.08847,-6.92023 6.92022,-6.92023 z m 5.03005,66.742994 c -1.98609,0 -3.60309,1.617 -3.60309,3.60309 l 0,6.57992 c 0,1.98608 1.617,3.57449 3.60309,3.57449 l 31.54703,0 c 1.9861,0 3.6031,-1.58841 3.6031,-3.57449 l 0,-6.57992 c 0,-1.98609 -1.617,-3.60309 -3.6031,-3.60309 -9.45237,0 -19.93702,0 -31.54703,0 z"
       id="path3005"
       inkscape:connector-curvature="0"
       inkscape:export-filename="/home/peter/workspace/android-studio/illumina/resources/gfx/battery_empty_light.png"
       inkscape:export-xdpi="120.98782"
       inkscape:export-ydpi="120.98782"
       sodipodi:nodetypes="sscsssssssscsssssssssssscsssssscc" />
    <g
       inkscape:export-ydpi="120.98782"
       inkscape:export-xdpi="120.98782"
       inkscape:export-filename="/home/peter/workspace/android-studio/illumina/resources/gfx/battery_full_dark.png"
       style="fill:#b3b3b3"
       transform="matrix(0.91507099,0,0,0.91507099,-265.74295,-237.74931)"
       id="g3778">
      <path
         style="fill:#b3b3b3;stroke:none"
         d="m 360.5,461.5625 c -2.69133,0 -4.875,2.18367 -4.875,4.875 l 0,2.40625 -12.75,0 c -5.3738,0 -9.71875,4.3137 -9.71875,9.6875 l 0,95.25 c 0,5.3738 4.34495,9.71875 9.71875,9.71875 l 58.375,0 c 5.3738,0 9.6875,-4.34495 9.6875,-9.71875 l 0,-95.25 c 0,-5.3738 -4.3137,-9.6875 -9.6875,-9.6875 l -12.78125,0 0,-2.40625 c 0,-2.69133 -2.18367,-4.875 -4.875,-4.875 l -23.09375,0 z m -11.1875,16.34375 45.5,0 c 4.18737,0 7.5625,3.37513 7.5625,7.5625 l 0,81.8125 c 0,4.18738 -3.37513,7.5625 -7.5625,7.5625 l -45.5,0 c -4.18738,0 -7.5625,-3.37512 -7.5625,-7.5625 l 0,-81.8125 c 0,-4.18737 3.37512,-7.5625 7.5625,-7.5625 z"
         id="path3780"
         inkscape:connector-curvature="0" />
      <path
         sodipodi:nodetypes="sssssssss"
         style="fill:#b3b3b3;fill-opacity:1;stroke:none"
         d="m 354.80182,486.93873 34.49084,0 c 2.17043,0 3.91775,1.74732 3.91775,3.91775 l 0,71.10888 c 0,2.17042 -1.74732,3.91774 -3.91775,3.91774 l -34.49084,0 c -2.17043,0 -3.91774,-1.74732 -3.91774,-3.91774 l 0,-71.10888 c 0,-2.17043 1.74731,-3.91775 3.91774,-3.91775 z"
         id="path3782"
         inkscape:connector-curvature="0" />
    </g>
    <path
       sodipodi:nodetypes="sscsssssssscsssssssssssscsssssscc"
       inkscape:export-ydpi="120.98782"
       inkscape:export-xdpi="120.98782"
       inkscape:export-filename="/home/peter/workspace/android-studio/illumina/resources/gfx/battery_empty_dark.png"
       inkscape:connector-curvature="0"
       id="path3784"
       d="m 173.94833,184.61315 c -2.46276,0 -4.46097,1.99821 -4.46097,4.46097 l 0,2.20189 -11.66716,0 c -4.9174,0 -8.89334,3.94734 -8.89334,8.86475 l 0,87.16051 c 0,4.91741 3.97594,8.89335 8.89334,8.89335 l 53.41727,0 c 4.91741,0 8.86475,-3.97594 8.86475,-8.89335 l 0,-87.16051 c 0,-4.91741 -3.94734,-8.86475 -8.86475,-8.86475 l -11.69575,0 0,-2.20189 c 0,-2.46276 -1.99821,-4.46097 -4.46097,-4.46097 z m -10.23736,14.95569 41.63573,0 c 3.83174,0 6.92022,3.08848 6.92022,6.92022 l 0,74.86425 c 0,3.83175 -3.08848,6.92022 -6.92022,6.92022 l -41.63573,0 c -3.83175,0 -6.92022,-3.08847 -6.92022,-6.92022 l 0,-74.86425 c 0,-3.83174 3.08847,-6.92022 6.92022,-6.92022 z m 5.03005,66.74299 c -1.98609,0 -3.60309,1.61699 -3.60309,3.60309 l 0,6.57991 c 0,1.98609 1.617,3.5745 3.60309,3.5745 l 31.54703,0 c 1.9861,0 3.6031,-1.58841 3.6031,-3.5745 l 0,-6.57991 c 0,-1.9861 -1.617,-3.60309 -3.6031,-3.60309 -9.45237,0 -19.93702,0 -31.54703,0 z"
       style="fill:#b3b3b3;stroke:none" />
    <path
       style="fill:#666666;fill-opacity:1"
       d="m 307.14892,153.79075 c -0.45026,-0.0504 -0.81864,-0.18404 -0.81864,-0.29686 0,-0.11288 -0.17191,-0.20604 -0.38203,-0.20717 -0.59894,-0.003 -2.49894,-1.17889 -3.40088,-2.10438 -1.72253,-1.76753 -2.55157,-4.51656 -2.11615,-7.01692 0.70868,-4.06952 2.80842,-5.7252 13.92248,-10.97816 2.18303,-1.03179 2.71822,-1.21096 2.82054,-0.94432 0.0694,0.18102 0.0758,3.14845 0.0145,6.59431 -0.12247,6.85333 -0.37676,8.55768 -1.58414,10.6179 -0.89632,1.52947 -3.05762,3.24901 -4.68976,3.73122 -0.30016,0.0886 -0.59488,0.23436 -0.65491,0.3237 -0.14693,0.21871 -2.09514,0.39448 -3.1108,0.28068 z M 276.90927,140.6172 c -3.7459,-0.5264 -6.62409,-3.87433 -6.65379,-7.73967 -0.0296,-3.86479 1.5692,-6.07194 6.36058,-8.78031 2.42764,-1.37224 10.13043,-5.04338 10.33993,-4.92798 0.24372,0.13423 0.19457,10.12779 -0.061,12.39849 -0.41565,3.69321 -1.25998,5.48184 -3.41142,7.22672 -1.85904,1.50774 -4.19915,2.15653 -6.57433,1.82275 z m 59.25354,-4.46722 c -4.89121,-1.34394 -7.28068,-7.3548 -4.71178,-11.85277 1.2418,-2.17432 4.09165,-4.06993 11.18484,-7.43977 2.37184,-1.12682 4.38133,-1.97986 4.46553,-1.89565 0.0843,0.0843 0.13846,2.92173 0.12044,6.30563 -0.036,6.77694 -0.24726,8.47864 -1.31471,10.58838 -1.04678,2.06893 -3.46403,3.85833 -5.9145,4.37826 -1.45332,0.30837 -2.4839,0.28575 -3.8298,-0.0841 z m -61.6263,-25.44354 c -5.29924,-0.51356 -10.19171,-3.31265 -13.49605,-7.72136 -1.08992,-1.4542 -2.42574,-4.158266 -2.88476,-5.839589 -0.20712,-0.758622 -0.47954,-1.449398 -0.6054,-1.535069 -0.31967,-0.217615 -0.31148,-7.773979 0.009,-7.983952 0.1306,-0.08571 0.35821,-0.646945 0.50577,-1.24727 0.35486,-1.443747 2.01108,-4.925173 2.88863,-6.072012 3.29759,-4.309521 7.6681,-6.946886 12.70454,-7.666486 l 1.72784,-0.246874 0.81575,-2.105162 c 0.96521,-2.490836 1.60682,-3.648513 3.23589,-5.838474 1.5295,-2.05616 2.62387,-3.149448 4.65914,-4.654604 4.05105,-2.995887 8.72713,-4.524434 13.84109,-4.524434 l 2.24694,0 1.72848,-2.239037 c 3.8497,-4.986845 9.30115,-8.520223 15.28098,-9.904434 0.92874,-0.214985 1.7587,-0.493167 1.84432,-0.61818 0.24107,-0.351897 9.38614,-0.308051 9.50409,0.04562 0.0501,0.150088 0.31745,0.272879 0.59418,0.272879 0.27673,0 1.37162,0.251683 2.4331,0.559283 8.85514,2.566121 16.21196,9.756583 18.74775,18.323847 0.87689,2.962604 0.77204,2.817295 2.43518,3.375024 7.73417,2.59368 13.83008,9.222563 15.46573,16.817906 0.0905,0.420236 0.27498,0.834153 0.40997,0.919824 0.33961,0.215508 0.34348,8.638146 0.004,8.857156 -0.13278,0.08572 -0.31354,0.548707 -0.40171,1.028973 -0.7571,4.123752 -4.15826,9.685557 -7.6881,12.572117 -4.05334,3.31466 -8.00495,4.92995 -13.2807,5.42871 -2.83807,0.26831 -69.95341,0.2643 -72.72539,-0.004 z m 75.23588,-8.90233 c 3.22923,-1.16326 5.80047,-3.010027 7.63356,-5.482747 5.24796,-7.079077 3.52623,-16.714467 -3.861,-21.607562 -1.75432,-1.162021 -4.00569,-1.944686 -6.95502,-2.417819 -1.53986,-0.247034 -2.8271,-0.476503 -2.86051,-0.509917 -0.0334,-0.03341 -0.25962,-1.438415 -0.50266,-3.122237 -0.85125,-5.897342 -2.51528,-9.246084 -6.39387,-12.867197 -4.70034,-4.388321 -11.63286,-6.122002 -17.90455,-4.477552 -3.67199,0.962799 -7.79529,3.66461 -10.19577,6.680851 -0.57334,0.720398 -1.65458,2.439523 -2.40277,3.820291 -0.74819,1.380753 -1.42254,2.576435 -1.49856,2.657051 -0.076,0.08063 -1.36617,-0.09719 -2.867,-0.395176 -3.45537,-0.686025 -5.84813,-0.616378 -8.41537,0.244942 -2.49868,0.838308 -3.69862,1.550193 -5.52566,3.27818 -3.37588,3.192886 -4.45829,5.619552 -5.28244,11.842887 -0.21216,1.602029 -0.33994,2.018488 -0.61843,2.015379 -0.19308,-0.0029 -1.28427,-0.147749 -2.42491,-0.323538 -4.8885,-0.753406 -7.57021,-0.06145 -10.54474,2.721148 -3.55716,3.327546 -4.42181,8.335776 -2.19708,12.726058 0.70625,1.393713 3.11121,3.844978 4.44635,4.531948 0.54031,0.27799 1.52266,0.681 2.18303,0.89556 1.13587,0.36905 3.18537,0.38769 37.98454,0.34534 l 36.7839,-0.0447 1.41896,-0.51114 z"
       id="path3826"
       inkscape:connector-curvature="0"
       inkscape:export-filename="/home/peter/workspace/android-studio/illumina/resources/gfx/raincloud_light.png"
       inkscape:export-xdpi="120.98782"
       inkscape:export-ydpi="120.98782" />
    <path
       inkscape:connector-curvature="0"
       id="path3832"
       d="m 307.14892,293.79075 c -0.45026,-0.0504 -0.81864,-0.18404 -0.81864,-0.29686 0,-0.11288 -0.17191,-0.20604 -0.38203,-0.20717 -0.59894,-0.003 -2.49894,-1.17889 -3.40088,-2.10438 -1.72253,-1.76753 -2.55157,-4.51656 -2.11615,-7.01692 0.70868,-4.06952 2.80842,-5.7252 13.92248,-10.97816 2.18303,-1.03179 2.71822,-1.21096 2.82054,-0.94432 0.0694,0.18102 0.0758,3.14845 0.0145,6.59431 -0.12247,6.85333 -0.37676,8.55768 -1.58414,10.6179 -0.89632,1.52947 -3.05762,3.24901 -4.68976,3.73122 -0.30016,0.0886 -0.59488,0.23436 -0.65491,0.3237 -0.14693,0.21871 -2.09514,0.39448 -3.1108,0.28068 z M 276.90927,280.6172 c -3.7459,-0.5264 -6.62409,-3.87433 -6.65379,-7.73967 -0.0296,-3.86479 1.5692,-6.07194 6.36058,-8.78031 2.42764,-1.37224 10.13043,-5.04338 10.33993,-4.92798 0.24372,0.13423 0.19457,10.12779 -0.061,12.39849 -0.41565,3.69321 -1.25998,5.48184 -3.41142,7.22672 -1.85904,1.50774 -4.19915,2.15653 -6.57433,1.82275 z m 59.25354,-4.46722 c -4.89121,-1.34394 -7.28068,-7.3548 -4.71178,-11.85277 1.2418,-2.17432 4.09165,-4.06993 11.18484,-7.43977 2.37184,-1.12682 4.38133,-1.97986 4.46553,-1.89565 0.0843,0.0843 0.13846,2.92173 0.12044,6.30563 -0.036,6.77694 -0.24726,8.47864 -1.31471,10.58838 -1.04678,2.06893 -3.46403,3.85833 -5.9145,4.37826 -1.45332,0.30837 -2.4839,0.28575 -3.8298,-0.0841 z m -61.6263,-25.44354 c -5.29924,-0.51356 -10.19171,-3.31265 -13.49605,-7.72136 -1.08992,-1.4542 -2.42574,-4.15827 -2.88476,-5.83959 -0.20712,-0.75862 -0.47954,-1.4494 -0.6054,-1.53507 -0.31967,-0.21761 -0.31148,-7.77398 0.009,-7.98395 0.1306,-0.0857 0.35821,-0.64695 0.50577,-1.24727 0.35486,-1.44375 2.01108,-4.92517 2.88863,-6.07201 3.29759,-4.30952 7.6681,-6.94689 12.70454,-7.66649 l 1.72784,-0.24687 0.81575,-2.10516 c 0.96521,-2.49084 1.60682,-3.64852 3.23589,-5.83848 1.5295,-2.05616 2.62387,-3.14945 4.65914,-4.6546 4.05105,-2.99589 8.72713,-4.52444 13.84109,-4.52444 l 2.24694,0 1.72848,-2.23903 c 3.8497,-4.98685 9.30115,-8.52023 15.28098,-9.90444 0.92874,-0.21498 1.7587,-0.49316 1.84432,-0.61818 0.24107,-0.35189 9.38614,-0.30805 9.50409,0.0456 0.0501,0.15009 0.31745,0.27288 0.59418,0.27288 0.27673,0 1.37162,0.25169 2.4331,0.55929 8.85514,2.56612 16.21196,9.75658 18.74775,18.32384 0.87689,2.96261 0.77204,2.8173 2.43518,3.37503 7.73417,2.59368 13.83008,9.22256 15.46573,16.8179 0.0905,0.42024 0.27498,0.83415 0.40997,0.91983 0.33961,0.2155 0.34348,8.63814 0.004,8.85715 -0.13278,0.0857 -0.31354,0.54871 -0.40171,1.02897 -0.7571,4.12376 -4.15826,9.68556 -7.6881,12.57212 -4.05334,3.31466 -8.00495,4.92995 -13.2807,5.42871 -2.83807,0.26831 -69.95341,0.2643 -72.72539,-0.004 z m 75.23588,-8.90233 c 3.22923,-1.16326 5.80047,-3.01003 7.63356,-5.48275 5.24796,-7.07907 3.52623,-16.71446 -3.861,-21.60756 -1.75432,-1.16202 -4.00569,-1.94469 -6.95502,-2.41782 -1.53986,-0.24703 -2.8271,-0.4765 -2.86051,-0.50992 -0.0334,-0.0334 -0.25962,-1.43841 -0.50266,-3.12223 -0.85125,-5.89734 -2.51528,-9.24609 -6.39387,-12.8672 -4.70034,-4.38832 -11.63286,-6.122 -17.90455,-4.47755 -3.67199,0.9628 -7.79529,3.66461 -10.19577,6.68085 -0.57334,0.7204 -1.65458,2.43952 -2.40277,3.82029 -0.74819,1.38075 -1.42254,2.57644 -1.49856,2.65705 -0.076,0.0806 -1.36617,-0.0972 -2.867,-0.39517 -3.45537,-0.68603 -5.84813,-0.61638 -8.41537,0.24494 -2.49868,0.83831 -3.69862,1.55019 -5.52566,3.27818 -3.37588,3.19288 -4.45829,5.61955 -5.28244,11.84288 -0.21216,1.60203 -0.33994,2.01849 -0.61843,2.01538 -0.19308,-0.003 -1.28427,-0.14775 -2.42491,-0.32353 -4.8885,-0.75341 -7.57021,-0.0614 -10.54474,2.72114 -3.55716,3.32755 -4.42181,8.33578 -2.19708,12.72606 0.70625,1.39371 3.11121,3.84498 4.44635,4.53195 0.54031,0.27799 1.52266,0.681 2.18303,0.89556 1.13587,0.36905 3.18537,0.38769 37.98454,0.34534 l 36.7839,-0.0447 1.41896,-0.51114 z"
       style="fill:#b3b3b3;fill-opacity:1"
       inkscape:export-filename="/home/peter/workspace/android-studio/illumina/resources/gfx/raincloud_dark.png"
       inkscape:export-xdpi="120.98782"
       inkscape:export-ydpi="120.98782" />
    <path
       style="fill:#666666;fill-opacity:1"
       d="m 432.06412,153.79075 c -10.13912,-0.96001 -19.298,-7.29539 -23.68021,-16.38011 -1.90544,-3.95015 -2.6385,-6.63044 -2.98474,-10.91285 -0.75318,-9.31633 3.09467,-18.65253 10.16631,-24.66702 l 1.95086,-1.65922 0,-21.250874 c 0,-23.275114 -0.023,-22.81856 1.31417,-26.061276 0.88138,-2.137367 2.02415,-3.814764 3.857,-5.661446 6.62455,-6.674566 17.85961,-6.674566 24.48416,0 3.60439,3.631594 4.89868,6.802661 5.13638,12.584433 l 0.145,3.526733 4.84926,0.110211 c 4.41514,0.100346 4.92819,0.152508 5.73094,0.582702 1.08216,0.579924 1.53583,1.06646 1.97539,2.11844 0.86692,2.074866 -2.2e-4,4.55108 -1.97539,5.640688 -0.54054,0.298198 -1.56666,0.384916 -5.62073,0.475005 l -4.95947,0.110208 0,4.187997 0,4.187997 4.95947,0.11021 c 4.05407,0.09009 5.08019,0.176809 5.62073,0.475005 2.92115,1.611488 3.09045,5.688724 0.31434,7.570356 l -0.9756,0.661262 -4.95947,0.11021 -4.95947,0.110211 -0.0591,5.21078 -0.0591,5.210778 1.72536,1.456 c 8.36949,7.06287 12.09781,18.00342 9.84865,28.90029 -2.0427,9.8966 -9.51619,18.37861 -19.12768,21.70893 -3.83598,1.32914 -8.72261,1.92257 -12.71718,1.54435 z m -15.64045,-27.77696 c 0.59682,-0.3194 0.8685,-0.92163 1.11985,-2.4824 0.4082,-2.53474 2.02895,-5.16979 5.09587,-8.28502 2.63261,-2.6741 5.12465,-4.48603 9.27427,-6.74324 1.52992,-0.83221 2.11395,-1.49674 2.62206,-2.98342 0.19366,-0.56668 0.29556,-6.242327 0.38386,-21.38082 l 0.12022,-20.609349 4.188,-0.11021 4.188,-0.110211 0.063,-2.276976 c 0.10842,-3.918739 -0.58227,-6.142608 -2.50494,-8.065288 -0.61074,-0.610732 -1.70903,-1.379973 -2.51692,-1.76285 -1.28826,-0.610523 -1.64537,-0.679295 -3.52736,-0.679295 -1.88201,0 -2.23911,0.06877 -3.52738,0.679295 -2.57875,1.222116 -4.31816,3.466854 -4.84692,6.255069 -0.13984,0.737341 -0.22212,9.27189 -0.22212,23.040065 0,15.933183 -0.069,22.07226 -0.25412,22.61815 -0.42348,1.24848 -1.02953,1.92216 -2.79635,3.10847 -5.96448,4.00474 -9.69938,10.49687 -9.81279,17.05693 -0.0283,1.63944 0.0203,1.86962 0.503,2.38555 0.57316,0.61247 1.66449,0.76635 2.45075,0.34555 z"
       id="path3847"
       inkscape:connector-curvature="0"
       inkscape:export-filename="/home/peter/workspace/android-studio/illumina/resources/gfx/thermometer_light.png"
       inkscape:export-xdpi="120.98782"
       inkscape:export-ydpi="120.98782" />
    <path
       inkscape:connector-curvature="0"
       id="path3849"
       d="m 432.06412,293.79075 c -10.13912,-0.96001 -19.298,-7.29539 -23.68021,-16.38011 -1.90544,-3.95015 -2.6385,-6.63044 -2.98474,-10.91285 -0.75318,-9.31633 3.09467,-18.65253 10.16631,-24.66702 l 1.95086,-1.65922 0,-21.25087 c 0,-23.27512 -0.023,-22.81856 1.31417,-26.06128 0.88138,-2.13737 2.02415,-3.81476 3.857,-5.66145 6.62455,-6.67456 17.85961,-6.67456 24.48416,0 3.60439,3.6316 4.89868,6.80267 5.13638,12.58444 l 0.145,3.52673 4.84926,0.11021 c 4.41514,0.10035 4.92819,0.15251 5.73094,0.5827 1.08216,0.57993 1.53583,1.06646 1.97539,2.11844 0.86692,2.07487 -2.2e-4,4.55108 -1.97539,5.64069 -0.54054,0.2982 -1.56666,0.38492 -5.62073,0.47501 l -4.95947,0.1102 0,4.188 0,4.188 4.95947,0.11021 c 4.05407,0.0901 5.08019,0.17681 5.62073,0.475 2.92115,1.61149 3.09045,5.68873 0.31434,7.57036 l -0.9756,0.66126 -4.95947,0.11021 -4.95947,0.11021 -0.0591,5.21078 -0.0591,5.21078 1.72536,1.456 c 8.36949,7.06287 12.09781,18.00342 9.84865,28.90029 -2.0427,9.8966 -9.51619,18.37861 -19.12768,21.70893 -3.83598,1.32914 -8.72261,1.92257 -12.71718,1.54435 z m -15.64045,-27.77696 c 0.59682,-0.3194 0.8685,-0.92163 1.11985,-2.4824 0.4082,-2.53474 2.02895,-5.16979 5.09587,-8.28502 2.63261,-2.6741 5.12465,-4.48603 9.27427,-6.74324 1.52992,-0.83221 2.11395,-1.49674 2.62206,-2.98342 0.19366,-0.56668 0.29556,-6.24233 0.38386,-21.38082 l 0.12022,-20.60935 4.188,-0.11021 4.188,-0.11021 0.063,-2.27698 c 0.10842,-3.91873 -0.58227,-6.1426 -2.50494,-8.06528 -0.61074,-0.61074 -1.70903,-1.37998 -2.51692,-1.76285 -1.28826,-0.61053 -1.64537,-0.6793 -3.52736,-0.6793 -1.88201,0 -2.23911,0.0688 -3.52738,0.6793 -2.57875,1.22211 -4.31816,3.46685 -4.84692,6.25507 -0.13984,0.73734 -0.22212,9.27188 -0.22212,23.04006 0,15.93318 -0.069,22.07226 -0.25412,22.61815 -0.42348,1.24848 -1.02953,1.92216 -2.79635,3.10847 -5.96448,4.00474 -9.69938,10.49687 -9.81279,17.05693 -0.0283,1.63944 0.0203,1.86962 0.503,2.38555 0.57316,0.61247 1.66449,0.76635 2.45075,0.34555 z"
       style="fill:#b3b3b3;fill-opacity:1"
       inkscape:export-filename="/home/peter/workspace/android-studio/illumina/resources/gfx/thermometer_dark.png"
       inkscape:export-xdpi="120.84761"
       inkscape:export-ydpi="120.84761" />
    <path
       style="fill:#666666;fill-opacity:1"
       d="m 582.75998,153.60416 c -2.46584,-0.33883 -4.04254,-0.82006 -6.35545,-1.93976 -2.68572,-1.30017 -4.37856,-2.55173 -6.46487,-4.77964 -3.88537,-4.1491 -5.90804,-9.43158 -5.89962,-15.40771 0.004,-2.42811 0.0973,-3.19708 0.65199,-5.34502 1.78953,-6.92859 5.99718,-15.34471 12.81589,-25.63432 2.33444,-3.522705 6.97389,-10.040922 7.73545,-10.867958 0.28582,-0.310381 6.12944,7.858656 10.19321,14.249498 6.72978,10.58355 10.68342,19.7756 11.30716,26.28882 0.28728,2.99989 -0.64047,7.86559 -2.09864,11.00659 -1.52058,3.27545 -4.59919,6.95453 -7.47533,8.93339 -1.66589,1.14614 -4.91361,2.58803 -6.89559,3.06142 -2.20837,0.52746 -5.46722,0.71597 -7.5142,0.43469 z m -4.1904,-9.74627 c -1.01131,-3.27467 -1.67536,-7.00815 -1.77527,-9.98103 -0.15532,-4.62159 0.77255,-9.30615 3.97551,-20.07111 1.59087,-5.34692 2.5141,-8.83946 2.50862,-9.49016 -0.003,-0.17999 -0.67072,0.94902 -1.48711,2.50889 -0.81637,1.55989 -2.66681,4.89779 -4.11211,7.41759 -6.66206,11.61507 -7.76469,15.04521 -6.61988,20.5936 0.60284,2.92158 2.02618,5.70555 3.9051,7.63811 1.23216,1.26732 3.52241,3.02712 3.98737,3.06383 0.0769,0.007 -0.0951,-0.74981 -0.38223,-1.67972 z m -40.11811,-7.4031 c -7.11097,-0.6175 -14.61465,-3.0918 -20.73288,-6.83657 -5.55431,-3.39961 -11.30852,-9.0686 -15.0996,-14.87594 -5.3804,-8.24194 -8.15021,-19.318723 -7.27157,-29.079745 1.03553,-11.503942 5.68805,-21.509962 13.75014,-29.57207 5.38306,-5.383057 11.35195,-9.095932 18.39682,-11.443534 7.0037,-2.333874 13.95866,-2.968781 21.43237,-1.956509 10.35664,1.402744 20.18158,6.441632 27.46983,14.088353 6.22148,6.52748 10.34484,14.348395 12.12425,22.99647 0.23964,1.164591 0.4357,2.189581 0.4357,2.277727 0,0.0882 -0.56451,-0.03132 -1.25445,-0.265393 -1.81569,-0.616137 -3.96272,-0.44966 -5.77307,0.447629 -0.74861,0.371046 -1.37015,0.655854 -1.38123,0.632916 -0.0107,-0.02299 -0.29187,-1.170722 -0.62396,-2.55061 -3.20577,-13.320408 -13.58296,-24.232361 -26.6639,-28.037967 -6.46588,-1.881095 -14.29,-1.995393 -20.5898,-0.300767 -10.97171,2.951342 -19.91653,10.257793 -24.92391,20.358709 -5.7854,11.67042 -5.24487,25.631556 1.42394,36.777721 4.42784,7.40065 11.64956,13.49538 19.42972,16.39763 4.82916,1.80142 8.41488,2.44408 13.66948,2.44995 4.87832,0.005 7.94153,-0.47766 12.50374,-1.97198 0.93754,-0.30707 1.73547,-0.52365 1.77322,-0.48126 0.0378,0.0424 -0.0765,0.86247 -0.25393,1.82238 -0.1774,0.95993 -0.32473,2.98748 -0.32742,4.50568 l -0.005,2.76036 -1.22765,0.3422 c -4.73394,1.31955 -11.39324,1.93906 -16.28099,1.51462 z m -17.25461,-26.00698 c -0.86035,-0.52461 -3.16587,-3.40424 -4.51649,-5.64107 -7.07789,-11.722234 -5.20281,-26.86759 4.53153,-36.601938 10.78219,-10.782179 27.82201,-11.773772 39.80242,-2.316193 0.96706,0.763415 2.34354,2.013679 3.05885,2.778343 l 1.30058,1.390336 1.01033,-0.433082 c 1.27767,-0.547674 2.41621,-0.549852 3.30757,-0.0068 0.94278,0.574847 1.40084,1.334457 1.4093,2.337061 0.009,1.134944 -0.28621,1.809635 -1.23378,2.814349 l -0.80142,0.849747 0.4733,0.97422 c 1.23862,2.549441 2.1574,5.689553 2.62961,8.987134 0.33664,2.350775 0.15455,7.519665 -0.34473,9.786313 -1.17318,5.326022 -3.66286,10.266542 -7.03576,13.961722 -1.19105,1.30488 -1.35925,1.41313 -2.19602,1.41313 -1.06552,0 -1.90898,-0.69319 -2.11825,-1.74081 -0.14137,-0.70775 0.21603,-1.30854 2.32997,-3.91678 2.17393,-2.68223 3.99776,-6.580121 4.81423,-10.288922 0.36201,-1.644382 0.47538,-2.896541 0.48123,-5.314608 0.008,-3.427582 -0.32479,-5.560317 -1.3289,-8.508419 -1.04939,-3.081088 -0.0486,-3.49216 -8.46544,3.477288 -7.37944,6.11052 -7.39216,6.122486 -7.7598,7.310741 -0.76651,2.47732 -2.29241,4.283701 -4.45486,5.273708 -3.86429,1.769111 -8.04975,0.727852 -10.51549,-2.616062 -3.4656,-4.699842 -1.20875,-11.504278 4.3646,-13.159388 0.88973,-0.264224 2.99568,-0.376908 4.62064,-0.247243 0.11993,0.0094 3.96741,-1.966109 8.54984,-4.390402 5.60221,-2.963806 8.29605,-4.500693 8.22288,-4.691345 -0.261,-0.680149 -3.89215,-3.589663 -6.08268,-4.873835 -6.91164,-4.051868 -15.9301,-4.520538 -23.2822,-1.209902 -5.6714,2.553824 -10.56146,7.44386 -13.11527,13.115262 -2.59824,5.770048 -2.91186,12.888859 -0.82864,18.809843 1.04718,2.976324 2.98388,6.353414 4.7848,8.343294 1.65375,1.82729 1.86907,2.4466 1.26018,3.6241 -0.31553,0.61014 -1.15089,1.12314 -1.82649,1.12165 -0.20434,-4.3e-4 -0.67488,-0.1858 -1.04564,-0.4119 z"
       id="path3077"
       inkscape:connector-curvature="0"
       inkscape:export-filename="/home/peter/workspace/android-studio/illumina/resources/gfx/humidity_light.png"
       inkscape:export-xdpi="121.06663"
       inkscape:export-ydpi="121.06663" />
    <path
       inkscape:connector-curvature="0"
       id="path3848"
       d="m 582.75998,293.60416 c -2.46584,-0.33883 -4.04254,-0.82006 -6.35545,-1.93976 -2.68572,-1.30017 -4.37856,-2.55173 -6.46487,-4.77964 -3.88537,-4.1491 -5.90804,-9.43158 -5.89962,-15.40771 0.004,-2.42811 0.0973,-3.19708 0.65199,-5.34502 1.78953,-6.92859 5.99718,-15.34471 12.81589,-25.63432 2.33444,-3.52271 6.97389,-10.04092 7.73545,-10.86796 0.28582,-0.31038 6.12944,7.85866 10.19321,14.2495 6.72978,10.58355 10.68342,19.7756 11.30716,26.28882 0.28728,2.99989 -0.64047,7.86559 -2.09864,11.00659 -1.52058,3.27545 -4.59919,6.95453 -7.47533,8.93339 -1.66589,1.14614 -4.91361,2.58803 -6.89559,3.06142 -2.20837,0.52746 -5.46722,0.71597 -7.5142,0.43469 z m -4.1904,-9.74627 c -1.01131,-3.27467 -1.67536,-7.00815 -1.77527,-9.98103 -0.15532,-4.62159 0.77255,-9.30615 3.97551,-20.07111 1.59087,-5.34692 2.5141,-8.83946 2.50862,-9.49016 -0.003,-0.17999 -0.67072,0.94902 -1.48711,2.50889 -0.81637,1.55989 -2.66681,4.89779 -4.11211,7.41759 -6.66206,11.61507 -7.76469,15.04521 -6.61988,20.5936 0.60284,2.92158 2.02618,5.70555 3.9051,7.63811 1.23216,1.26732 3.52241,3.02712 3.98737,3.06383 0.0769,0.007 -0.0951,-0.74981 -0.38223,-1.67972 z m -40.11811,-7.4031 c -7.11097,-0.6175 -14.61465,-3.0918 -20.73288,-6.83657 -5.55431,-3.39961 -11.30852,-9.0686 -15.0996,-14.87594 -5.3804,-8.24194 -8.15021,-19.31872 -7.27157,-29.07974 1.03553,-11.50395 5.68805,-21.50997 13.75014,-29.57208 5.38306,-5.38305 11.35195,-9.09593 18.39682,-11.44353 7.0037,-2.33387 13.95866,-2.96878 21.43237,-1.95651 10.35664,1.40275 20.18158,6.44163 27.46983,14.08835 6.22148,6.52748 10.34484,14.3484 12.12425,22.99647 0.23964,1.1646 0.4357,2.18959 0.4357,2.27773 0,0.0882 -0.56451,-0.0313 -1.25445,-0.26539 -1.81569,-0.61614 -3.96272,-0.44966 -5.77307,0.44763 -0.74861,0.37104 -1.37015,0.65585 -1.38123,0.63291 -0.0107,-0.023 -0.29187,-1.17072 -0.62396,-2.55061 -3.20577,-13.3204 -13.58296,-24.23236 -26.6639,-28.03796 -6.46588,-1.8811 -14.29,-1.9954 -20.5898,-0.30077 -10.97171,2.95134 -19.91653,10.25779 -24.92391,20.35871 -5.7854,11.67042 -5.24487,25.63156 1.42394,36.77772 4.42784,7.40065 11.64956,13.49538 19.42972,16.39763 4.82916,1.80142 8.41488,2.44408 13.66948,2.44995 4.87832,0.005 7.94153,-0.47766 12.50374,-1.97198 0.93754,-0.30707 1.73547,-0.52365 1.77322,-0.48126 0.0378,0.0424 -0.0765,0.86247 -0.25393,1.82238 -0.1774,0.95993 -0.32473,2.98748 -0.32742,4.50568 l -0.005,2.76036 -1.22765,0.3422 c -4.73394,1.31955 -11.39324,1.93906 -16.28099,1.51462 z m -17.25461,-26.00698 c -0.86035,-0.52461 -3.16587,-3.40424 -4.51649,-5.64107 -7.07789,-11.72223 -5.20281,-26.86759 4.53153,-36.60194 10.78219,-10.78218 27.82201,-11.77377 39.80242,-2.31619 0.96706,0.76341 2.34354,2.01368 3.05885,2.77834 l 1.30058,1.39034 1.01033,-0.43308 c 1.27767,-0.54768 2.41621,-0.54986 3.30757,-0.007 0.94278,0.57484 1.40084,1.33445 1.4093,2.33706 0.009,1.13494 -0.28621,1.80963 -1.23378,2.81435 l -0.80142,0.84974 0.4733,0.97422 c 1.23862,2.54944 2.1574,5.68956 2.62961,8.98714 0.33664,2.35077 0.15455,7.51966 -0.34473,9.78631 -1.17318,5.32602 -3.66286,10.26654 -7.03576,13.96172 -1.19105,1.30488 -1.35925,1.41313 -2.19602,1.41313 -1.06552,0 -1.90898,-0.69319 -2.11825,-1.74081 -0.14137,-0.70775 0.21603,-1.30854 2.32997,-3.91678 2.17393,-2.68223 3.99776,-6.58012 4.81423,-10.28892 0.36201,-1.64438 0.47538,-2.89654 0.48123,-5.31461 0.008,-3.42758 -0.32479,-5.56031 -1.3289,-8.50842 -1.04939,-3.08109 -0.0486,-3.49216 -8.46544,3.47729 -7.37944,6.11052 -7.39216,6.12249 -7.7598,7.31074 -0.76651,2.47732 -2.29241,4.2837 -4.45486,5.27371 -3.86429,1.76911 -8.04975,0.72785 -10.51549,-2.61606 -3.4656,-4.69984 -1.20875,-11.50428 4.3646,-13.15939 0.88973,-0.26422 2.99568,-0.37691 4.62064,-0.24724 0.11993,0.009 3.96741,-1.96611 8.54984,-4.39041 5.60221,-2.9638 8.29605,-4.50069 8.22288,-4.69134 -0.261,-0.68015 -3.89215,-3.58966 -6.08268,-4.87384 -6.91164,-4.05186 -15.9301,-4.52053 -23.2822,-1.2099 -5.6714,2.55383 -10.56146,7.44386 -13.11527,13.11526 -2.59824,5.77005 -2.91186,12.88886 -0.82864,18.80985 1.04718,2.97632 2.98388,6.35341 4.7848,8.34329 1.65375,1.82729 1.86907,2.4466 1.26018,3.6241 -0.31553,0.61014 -1.15089,1.12314 -1.82649,1.12165 -0.20434,-4.3e-4 -0.67488,-0.1858 -1.04564,-0.4119 z"
       style="fill:#b3b3b3;fill-opacity:1"
       inkscape:export-filename="/home/peter/workspace/android-studio/illumina/resources/gfx/humidity_dark.png"
       inkscape:export-xdpi="121.06663"
       inkscape:export-ydpi="121.06663" />
    <path
       style="fill:#000000"
       d="m 231.01571,635.13327 c -1.00059,-0.2612 -2.34672,-0.85721 -2.99139,-1.32448 -0.64468,-0.46726 -6.4134,-6.11246 -12.81937,-12.54489 -12.44135,-12.49273 -12.9944,-13.21419 -12.96498,-16.9131 0.0291,-3.66654 0.6024,-4.41729 12.45301,-16.30904 l 11.14036,-11.17903 3.20386,3.18364 3.20386,3.18363 5.88087,-5.8563 c 3.23448,-3.22097 6.38303,-6.04343 6.99679,-6.27213 0.83582,-0.31144 1.45348,-0.27477 2.46072,0.14609 1.60666,0.6713 2.20671,1.66165 2.20671,3.64204 0,1.35983 -0.4534,1.92901 -6.06787,7.61727 l -6.06787,6.14761 5.65615,5.65616 5.65616,5.65616 6.14762,-6.06787 c 5.68825,-5.61448 6.25743,-6.06788 7.61727,-6.06788 1.98038,0 2.97073,0.60006 3.64204,2.20671 0.42085,1.00725 0.45752,1.6249 0.14608,2.46072 -0.2287,0.61376 -3.05115,3.76232 -6.27212,6.99679 l -5.85631,5.88087 3.18364,3.20674 3.18364,3.20674 -11.36728,11.29824 c -11.52508,11.45509 -11.91659,11.76936 -15.35579,12.32641 -0.65811,0.10659 -2.01522,-0.0199 -3.0158,-0.2811 z m 31.53198,-60.27181 -17.34833,-17.35707 11.17903,-11.1442 c 7.64742,-7.62359 11.66918,-11.34899 12.73056,-11.79247 2.21716,-0.92638 5.37364,-0.86178 7.46575,0.1528 2.45485,1.1905 25.57187,24.39335 26.48864,26.58699 0.83686,2.00244 0.83141,5.17806 -0.0123,7.19745 -0.44079,1.05496 -4.16275,5.07859 -11.68383,12.63084 -6.07035,6.0955 -11.13468,11.08272 -11.25407,11.08272 -0.1194,0 -8.02384,-7.81068 -17.56542,-17.35706 z"
       id="path3329"
       inkscape:connector-curvature="0" />
  </g>
</svg>
