<?xml version="1.0" encoding="UTF-8" standalone="no"?>
<!-- Created with Inkscape (http://www.inkscape.org/) -->
<!--
  ~ illumina, a pilight remote
  ~
  ~ Copyright (c) 2014 Peter Heisig <http://google.com/+PeterHeisig>
  ~
  ~ This program is free software: you can redistribute it and/or modify
  ~ it under the terms of the GNU General Public License as published by
  ~ the Free Software Foundation, either version 3 of the License, or
  ~ (at your option) any later version.
  ~
  ~ This program is distributed in the hope that it will be useful,
  ~ but WITHOUT ANY WARRANTY; without even the implied warranty of
  ~ MERCHANTABILITY or FITNESS FOR A PARTICULAR PURPOSE. See the
  ~ GNU General Public License for more details.
  ~
  ~ You should have received a copy of the GNU General Public License
  ~ along with this program. If not, see <http://www.gnu.org/licenses/>.
  -->
<svg
   xmlns:dc="http://purl.org/dc/elements/1.1/"
   xmlns:cc="http://creativecommons.org/ns#"
   xmlns:rdf="http://www.w3.org/1999/02/22-rdf-syntax-ns#"
   xmlns:svg="http://www.w3.org/2000/svg"
   xmlns="http://www.w3.org/2000/svg"
   xmlns:sodipodi="http://sodipodi.sourceforge.net/DTD/sodipodi-0.dtd"
   xmlns:inkscape="http://www.inkscape.org/namespaces/inkscape"
   width="800"
   height="330"
   id="svg2"
   version="1.1"
   inkscape:version="0.48.3.1 r9886"
   sodipodi:docname="info.svg"
   inkscape:export-filename="/home/peter/workspace/android-studio/illumina/resources/gfx/info_de.png"
   inkscape:export-xdpi="120"
   inkscape:export-ydpi="120">
  <defs
     id="defs4" />
  <sodipodi:namedview
     id="base"
     pagecolor="#ffffff"
     bordercolor="#666666"
     borderopacity="1.0"
     inkscape:pageopacity="0.0"
     inkscape:pageshadow="2"
     inkscape:zoom="0.7"
     inkscape:cx="329.46799"
     inkscape:cy="149.65023"
     inkscape:document-units="px"
     inkscape:current-layer="layer1"
     showgrid="false"
     inkscape:window-width="1280"
     inkscape:window-height="1000"
     inkscape:window-x="1280"
     inkscape:window-y="24"
     inkscape:window-maximized="1" />
  <metadata
     id="metadata7">
    <rdf:RDF>
      <cc:Work
         rdf:about="">
        <dc:format>image/svg+xml</dc:format>
        <dc:type
           rdf:resource="http://purl.org/dc/dcmitype/StillImage" />
        <dc:title></dc:title>
      </cc:Work>
    </rdf:RDF>
  </metadata>
  <g
     inkscape:label="Ebene 1"
     inkscape:groupmode="layer"
     id="layer1"
     transform="translate(0,-722.36218)">
    <path
       style="fill:#33b5ef;fill-opacity:0.94117647"
       d="m 1665.9458,1050.9893 c -0.5825,-0.5823 -2.7496,-1.3854 -4.8158,-1.7846 -9.896,-1.912 -30.2711,-13.2099 -34.9967,-19.4057 -7.4312,-9.7427 -8.8877,-21.2558 -3.9208,-30.99196 4.0852,-8.00753 9.5747,-13.86023 11.3424,-12.09263 0.5469,0.5471 -1.1696,4.8052 -3.815,9.46223 -4.111,7.23796 -4.5241,9.52206 -2.8447,15.72936 1.0808,3.994 3.8967,9.3777 6.2577,11.9638 6.8525,7.506 27.8354,16.2219 39.0527,16.2219 12.9482,0 16.055,-1.4391 16.055,-7.4368 0,-4.5352 -9.1965,-28.0013 -11.9238,-30.4254 -3.1643,-2.81246 -21.2305,-34.14644 -23.2665,-40.35325 -0.8992,-2.74071 -3.413,-3.48731 -11.742,-3.48731 -14.005,0 -19.2974,-2.25359 -26.0338,-11.08548 -6.9153,-9.0664 -8.1601,-25.74076 -2.2035,-29.51383 4.3923,-2.78214 7.9635,1.56213 6.4843,7.88783 -1.3628,5.82742 2.0971,16.70291 6.3369,19.91891 1.9593,1.48613 7.9177,2.73057 13.2411,2.76544 7.9474,0.052 9.4662,-0.49038 8.4909,-3.03233 -0.6688,-1.74251 0.609,-5.009 2.9228,-7.47282 l 4.1108,-4.37712 3.7386,4.58108 c 2.0564,2.51957 3.2442,5.86984 2.6396,7.44502 -2.0083,5.23355 7.0111,29.62705 16.1841,43.77097 23.2233,35.80829 22.5769,62.77159 -1.5051,62.77159 -4.8017,0 -9.2069,-0.4764 -9.7892,-1.0589 z m -313.2371,-16.6253 c -1.9415,-2.1453 -3.8058,-5.9937 -4.1429,-8.552 -2.1058,-15.9789 -10.2826,-41.51729 -13.2929,-41.51729 -0.9471,0 -1.722,-0.83837 -1.722,-1.86302 0,-1.02468 -0.9196,-4.28161 -2.0435,-7.23764 -1.8987,-4.99409 -2.2932,-5.14855 -5.5716,-2.1816 -2.5414,2.29993 -8.1277,3.30615 -19.9728,3.59761 -9.0445,0.22253 -16.9026,1.14589 -17.4626,2.05188 -1.7462,2.82538 -14.4305,1.83213 -16.1642,-1.26572 -1.4195,-2.53645 -2.6559,-2.54775 -9.5646,-0.0874 -10.0931,3.59425 -24.4367,3.65219 -30.8094,0.12455 -4.646,-2.57189 -5.0853,-2.38966 -7.3766,3.05974 -1.34,3.18697 -3.6429,5.7945 -5.1174,5.7945 -2.9299,0 -12.44,-9.61117 -24.1851,-24.44213 -7.853,-9.91627 -16.0855,-15.41298 -23.0841,-15.41298 -4.3641,0 -4.3475,2.66932 0.1038,16.73756 1.0054,3.1776 1.828,9.23059 1.828,13.45108 0,6.15549 -0.7341,7.67367 -3.7104,7.67367 -2.9033,0 -4.2456,-2.49254 -6.1705,-11.45835 -1.353,-6.30208 -3.3319,-15.49364 -4.3974,-20.4257 -2.2103,-10.23115 -3.3893,-51.01233 -1.5603,-53.97171 1.7793,-2.87896 7.8459,0.0546 7.9992,3.86793 0.073,1.80075 0.2964,8.65455 0.4981,15.23063 0.343,11.18342 0.6916,11.99442 5.3917,12.54315 12.4459,1.45299 33.1753,-13.91685 35.1457,-26.05891 1.3222,-8.14798 -3.2537,-19.12225 -9.6351,-23.10747 -2.5915,-1.6185 -9.6621,-2.65941 -17.5594,-2.5851 -17.1131,0.16102 -34.662,6.57982 -43.5426,15.92641 -5.3034,5.58165 -7.0157,6.43023 -8.4388,4.18209 -5.4117,-8.54963 2.7633,-16.73666 24.4035,-24.43937 20.2258,-7.19926 31.9274,-8.17263 42.4249,-3.52908 22.2769,9.85412 27.5241,41.63601 9.2945,56.29535 -11.2323,9.03237 -15.0213,11.69682 -16.6341,11.69682 -0.8924,0 2.2044,3.81113 6.8817,8.4692 4.6773,4.65805 9.8493,10.56427 11.4934,13.12493 4.0142,6.25248 13.4187,12.84574 16.0251,11.23488 1.3,-0.80348 1.4073,-2.18325 0.281,-3.61334 -2.5738,-3.26791 -4.1421,-13.27366 -2.0806,-13.27366 0.9439,0 1.7163,-1.61148 1.7163,-3.58107 0,-5.35023 14.1913,-18.17703 22.7141,-20.53031 6.0329,-1.66574 8.4161,-1.44103 12.3998,1.16917 5.7271,3.75259 12.694,14.41164 12.7048,19.43802 0,1.90873 1.8009,4.59046 3.9929,5.9594 2.192,1.36894 3.9855,3.99342 3.9855,5.83216 0,9.85514 6.6409,13.22586 8.8348,4.48434 0.9868,-3.93168 2.1076,-4.81123 4.6998,-3.68779 4.3017,1.86442 22.3341,2.32026 22.3346,0.56458 2e-4,-0.72137 -5.2584,-3.0875 -11.6856,-5.25803 -14.7587,-4.98405 -22.4482,-11.37199 -21.3015,-17.69571 1.0334,-5.69915 5.0934,-9.95047 12.0159,-12.58241 13.7403,-5.22405 20.9357,-3.57078 23.805,5.4696 1.3503,4.25422 0.8955,4.47755 -9.1756,4.50655 -19.3431,0.0558 -20.5791,5.79604 -2.3867,11.08469 6.0477,1.75811 14.1574,5.97248 18.0216,9.36529 6.977,6.12595 7.0209,6.13503 6.3393,1.3133 -1.3075,-9.24874 4.9977,-5.42473 7.8796,4.77884 2.9447,10.42605 5.1762,10.68339 5.7352,0.66141 0.5452,-9.77367 4.9604,-27.23404 6.8867,-27.23404 0.9508,0 1.7288,-1.29425 1.7288,-2.87614 0,-7.67205 17.4641,-11.78081 27.8133,-6.54362 12.6686,6.41084 21.0027,30.30745 15.3164,43.91678 -2.2691,5.43061 -4.4502,7.16432 -11.1533,8.86577 -19.2091,4.87582 -34.0325,-7.17498 -27.7884,-22.59091 l 2.3597,-5.82625 1.477,6.57758 c 1.8395,8.19207 1.3498,7.76787 11.6344,10.07866 7.3999,1.66264 9.1163,1.39799 12.4309,-1.91655 6.3076,-6.3077 1.6182,-22.58575 -8.1728,-28.36943 -6.6123,-3.90601 -13.9091,-2.88441 -18.9163,2.64845 -3.8088,4.20874 -8.4589,20.51423 -8.1044,28.41787 0.1353,3.01404 -0.4878,5.48007 -1.3846,5.48007 -0.8967,0 -0.7022,1.73453 0.4324,3.8545 1.1346,2.11997 2.0629,5.74263 2.0629,8.05043 0,2.3077 1.8985,7.91723 4.2189,12.46559 2.3205,4.5485 4.5876,11.0141 5.0382,14.3681 0.4505,3.3541 1.1878,7.8918 1.6385,10.0838 0.4507,2.192 -0.2986,6.0404 -1.6652,8.5519 -2.4585,4.5185 -2.5217,4.5255 -6.0146,0.6659 z m -100.5491,-70.32559 c 9.1319,-2.73597 11.9409,-9.36212 7.3992,-17.45379 -3.8233,-6.81155 -8.0427,-7.28997 -18.7176,-2.12231 -7.4733,3.61774 -8.9207,5.2412 -8.9207,10.00589 0,3.61828 1.6114,6.81611 4.4289,8.78963 5.3055,3.71603 5.9125,3.74599 15.8102,0.78058 z m -946.16459,69.60179 c -0.71107,-1.1505 -1.6804,-5.7742 -2.15408,-10.2749 -0.4737,-4.5006 -2.05569,-13.5634 -3.51553,-20.1395 -1.45986,-6.57606 -3.29007,-17.15369 -4.06715,-23.50591 -1.55431,-12.7057 -3.69056,-13.84698 -4.66728,-2.49347 -0.39786,4.62464 -13.83918,7.42819 -22.12532,4.61477 -10.40974,-3.53442 -17.97882,-9.2702 -17.97882,-13.62418 0,-4.78193 0.49586,-4.7747 14.69113,0.21455 12.5029,4.39443 21.20595,3.76017 17.05381,-1.24283 -1.28791,-1.55184 -3.57697,-2.82154 -5.08677,-2.82154 -1.50983,0 -2.74514,-0.7794 -2.74514,-1.73201 0,-0.95261 -3.06615,-2.22957 -6.81368,-2.83772 -20.15421,-3.27059 -23.35792,-18.90092 -5.73998,-28.00442 7.78142,-4.02082 7.5612,-4.01765 11.41494,-0.16381 5.20696,5.20696 3.99329,10.81299 -2.3486,10.8483 -3.01403,0.016 -6.79478,0.86205 -8.40168,1.87835 -2.37151,1.49991 -1.99634,2.19996 1.99275,3.71814 16.17712,6.15676 21.32551,8.96993 25.33017,13.84085 l 4.47381,5.44155 0.01,-4.71611 c 0.008,-3.67684 0.85787,-4.49437 3.85785,-3.70984 3.21989,0.84202 4.04997,-0.33973 5.08576,-7.24041 2.95995,-19.72013 12.09704,-30.52867 23.93089,-28.30863 10.62906,1.99402 29.97866,21.49066 34.74361,35.00761 2.39744,6.80092 3.15813,11.67854 2.00449,12.85325 -1.02252,1.04121 -1.85914,3.52041 -1.85914,5.50936 0,5.23621 -11.53727,11.51246 -21.17872,11.52116 -13.76521,0.012 -29.04529,-8.52851 -31.17752,-17.42708 -1.44937,-6.04874 1.49203,-7.42075 5.90597,-2.75485 3.68051,3.89061 19.88047,10.22567 26.14899,10.22567 6.19974,0 12.33028,-5.85436 12.33028,-11.77481 0,-15.0549 -26.86796,-37.097 -37.20422,-30.52185 -1.28208,0.81556 -4.135,6.05947 -6.3398,11.65312 -3.3366,8.46503 -3.91976,13.97492 -3.47803,32.86159 0.31499,13.46864 1.87935,27.5187 3.84886,34.5683 1.82499,6.5324 3.31815,13.3775 3.31815,15.2114 0,3.8312 -7.32221,6.4612 -9.25988,3.326 z m 338.2915,-18.6403 c -14.51115,-15.05366 -36.94962,-21.98496 -64.77636,-20.00976 -28.86222,2.0486 -43.07819,9.78006 -25.90729,14.08966 6.77135,1.6995 5.59949,7.8799 -1.65314,8.7188 -2.96476,0.343 -9.45844,-1.1759 -14.43042,-3.3752 -7.00047,-3.0967 -9.03997,-5.0482 -9.03997,-8.6499 0,-17.28779 56.85103,-28.58744 88.50622,-17.59129 6.48191,2.2516 12.13046,3.7486 12.55235,3.3268 0.42189,-0.4219 -0.9632,-3.8477 -3.07794,-7.61281 -2.11475,-3.76514 -4.50599,-9.92364 -5.31387,-13.68554 -2.06586,-9.61969 -2.41418,-9.89473 -8.50677,-6.71644 -15.68086,8.18019 -30.3557,-3.56495 -30.3557,-24.29546 0,-11.92791 6.06231,-28.63586 10.39023,-28.63586 4.96189,0 6.20208,4.07164 3.3854,11.11467 -7.13259,17.83491 -5.00451,31.35031 5.3453,33.94794 6.97028,1.74943 14.75585,-2.71602 14.75585,-8.46334 0,-4.47219 7.06765,-10.26835 9.52478,-7.81124 0.66683,0.66683 1.89948,7.64267 2.73923,15.50187 1.79586,16.80746 9.60875,34.05861 21.3723,47.1908 7.27763,8.1243 11.08474,16.5759 8.59043,19.0702 -2.61167,2.6117 -7.89964,0.3188 -14.10063,-6.1139 z M 177.75503,984.86871 c -1.64402,-0.60718 -9.80654,-8.2499 -18.13891,-16.98377 -19.82914,-20.78456 -22.92141,-20.64612 -22.19507,0.99366 0.47562,14.16994 0.20102,15.41611 -3.39702,15.41611 -2.91685,0 -4.25753,-1.8288 -5.26066,-7.17594 -1.92984,-10.28691 0.44073,-59.48515 3.10619,-64.46565 3.09035,-5.77432 6.03043,-3.27029 6.03043,5.13603 0,4.95863 1.88284,9.25896 6.47644,14.79212 3.56205,4.29059 7.4296,7.81722 8.59456,7.83697 2.97028,0.0505 11.75449,-9.6988 15.58916,-17.30169 6.3282,-12.54672 2.88786,-26.83104 -7.31918,-30.38922 -12.36074,-4.30898 -32.16267,-0.33799 -39.28913,7.87888 -4.85821,5.60157 -6.32077,4.96578 -5.60019,-2.4344 0.82028,-8.42387 10.22746,-14.80213 24.45276,-16.57946 24.40373,-3.04903 36.82998,4.78834 39.01118,24.60483 1.45061,13.17878 -2.81334,23.75844 -14.31927,35.52868 l -8.06115,8.24631 7.66899,8.67074 c 11.24245,12.71101 11.19099,12.66123 17.04692,16.4907 2.96585,1.93951 6.26664,2.98608 7.33513,2.32572 3.45984,-2.1383 4.34345,2.43257 1.09768,5.67835 -3.18432,3.18433 -7.36649,3.74863 -12.82886,1.73103 z m 57.84605,-2.79234 c -2.70908,-1.08114 -5.5745,-3.01562 -6.36759,-4.29886 -1.09779,-1.77627 -3.04758,-1.75258 -8.16875,0.0992 -9.9143,3.58506 -22.17443,3.08444 -25.92377,-1.05853 -8.94555,-9.88472 -7.07208,-21.04584 5.36574,-31.96641 7.64876,-6.71569 19.84488,-10.13166 24.90146,-6.97455 5.1414,3.21005 12.84381,20.37762 13.00635,28.98928 0.0833,4.40988 1.42084,6.98007 4.41314,8.47972 3.30015,1.65394 3.85362,2.93819 2.39191,5.55015 -2.1495,3.84094 -2.76229,3.91614 -9.61849,1.17996 z m -13.28087,-18.97729 c 2.88949,-2.88949 5.25361,-6.41239 5.25361,-7.82868 0,-3.98051 -6.1545,-9.19675 -9.38731,-7.9562 -1.59233,0.61104 -3.68736,1.11098 -4.6556,1.11098 -0.96823,0 -4.96081,2.80997 -8.8724,6.24439 -6.75392,5.93003 -6.94251,6.43164 -3.746,9.96375 4.999,5.52383 15.0715,4.80196 21.4077,-1.53424 z m 170.02641,17.06951 c -3.08412,-0.86658 -6.67107,-2.44863 -7.971,-3.51568 -1.29995,-1.06704 -4.60539,-2.25018 -7.34543,-2.6292 -4.56314,-0.6312 -5.33834,-2.29974 -9.22293,-19.85128 -5.82914,-26.33748 -7.69463,-55.47474 -3.88245,-60.64012 4.87616,-6.60711 6.73647,-1.17258 7.87617,23.00884 0.59405,12.60416 1.49667,24.71012 2.00582,26.90215 0.50913,2.19203 1.03396,4.88224 1.16624,5.97826 0.13231,1.09601 1.90955,-1.16289 3.94946,-5.01981 4.16522,-7.87533 13.50615,-17.89684 16.68141,-17.89684 4.8406,0 19.20085,8.54085 20.32723,12.08975 0.67247,2.11875 1.99855,3.85226 2.94684,3.85226 0.9483,0 2.2934,1.79348 2.98912,3.98551 0.69574,2.19203 2.25072,3.9855 3.45554,3.9855 1.20483,0 1.62854,-0.56205 0.94157,-1.24901 -1.55326,-1.55328 3.38483,-11.30654 8.98618,-17.74867 5.20316,-5.98413 18.97982,-11.4346 26.68071,-10.55569 4.84056,0.55247 5.76929,1.56086 5.76929,6.26412 0,4.15294 -1.54926,6.47683 -5.97825,8.96739 -3.28804,1.84895 -6.42662,3.91342 -6.97463,4.5877 -2.03296,2.50144 -9.96376,4.01173 -9.96376,1.89744 0,-4.22887 -3.9522,-1.9935 -7.04306,3.98354 -6.90227,13.34755 1.09909,23.31391 18.99957,23.66555 19.52427,0.38357 15.96716,8.7504 -3.72016,8.7504 -12.66629,0 -23.31813,-4.77838 -25.42096,-11.40377 -1.20703,-3.80302 -1.29274,-3.79654 -3.48474,0.26381 -5.43565,10.06861 -19.87137,15.67058 -31.76778,12.32785 z m 16.48152,-12.3594 c 8.24459,-4.17214 8.565,-14.22366 0.72662,-22.79427 -1.29175,-1.4124 -3.30941,-2.568 -4.4837,-2.568 -1.17431,0 -2.13509,-0.89674 -2.13509,-1.99275 0,-1.09601 -2.17656,-1.99275 -4.83681,-1.99275 -5.81429,0 -17.08347,12.69209 -17.08347,19.24054 0,9.81824 16.52,15.82173 27.81245,10.10723 z M 1435.1812,977.9571 c -3.836,-1.09597 -8.0382,-2.8708 -9.3382,-3.94407 -1.5446,-1.27523 -3.6533,-1.26116 -6.0856,0.0407 -5.8601,3.13624 -8.1234,0.20894 -13.3566,-17.2748 -2.6889,-8.98367 -8.611,-24.60014 -13.1602,-34.70333 -9.8072,-21.7803 -11.5041,-29.59669 -7.2008,-33.16812 2.584,-2.14448 3.5068,-1.66514 5.9331,3.08157 1.5803,3.09159 3.5332,8.75967 4.3398,12.59571 0.8066,3.83604 2.113,7.87137 2.9033,8.96738 0.7902,1.09602 3.5142,7.23084 6.0534,13.63297 l 4.6166,11.6402 5.0094,-6.40089 c 5.2066,-6.65274 15.0864,-11.8977 22.4116,-11.8977 7.0877,0 17.1055,5.85416 19.6775,11.4991 l 2.4279,5.32878 3.1847,-5.24875 c 3.2335,-5.32883 14.8987,-12.05714 24.9359,-14.38241 4.3275,-1.00251 6.6496,-0.15184 10.7337,3.93228 l 5.2116,5.21157 -4.8419,4.84189 c -3.0633,3.06322 -9.2025,5.74731 -16.712,7.30664 -6.5285,1.35563 -12.991,3.1835 -14.3609,4.06195 -4.2556,2.72865 -2.8735,10.98319 2.4196,14.45141 6.3292,4.14708 25.4718,5.77807 36.8831,3.14251 10.4597,-2.41577 11.9138,-1.70243 7.1839,3.5241 -7.2087,7.96545 -40.3166,10.51801 -48.4858,3.73817 -2.1681,-1.79928 -3.6919,-1.18555 -7.106,2.86195 -4.2914,5.08777 -11.5173,9.68296 -14.6769,9.33362 -0.894,-0.0988 -4.7641,-1.07642 -8.6002,-2.17238 z m 15.5435,-13.98846 c 3.4737,-3.47376 2.9565,-20.79926 -0.7918,-26.51978 -4.4285,-6.75889 -14.2401,-8.27657 -22.7548,-3.51978 -11.7912,6.58732 -12.4275,21.7805 -1.1989,28.62752 6.9708,4.25056 21.1006,5.05685 24.7455,1.41204 z m -917.806,-3.01679 c -3.00595,-19.10363 -3.12344,-33.90346 -0.33271,-41.90894 2.793,-8.01199 13.67916,-11.18103 25.018,-7.28292 7.51644,2.58402 13.43818,7.99025 11.74791,10.72519 -0.46615,0.75423 -5.30447,0.45836 -10.75179,-0.65752 -14.51345,-2.97304 -16.44886,-0.71366 -14.86328,17.35129 0.68684,7.82545 1.34602,19.16017 1.46485,25.18824 0.20302,10.30001 -0.0866,10.99547 -4.81017,11.54688 -4.81933,0.56261 -5.12688,-0.0532 -7.47281,-14.96222 z m 139.06926,9.89179 c 0.044,-7.91866 2.15029,-10.26265 7.44231,-8.28253 5.23741,1.95966 5.77748,6.20586 1.35221,10.63112 -4.90946,4.90949 -8.8291,3.86273 -8.79452,-2.34859 z M 494.2349,965.86175 c -2.43876,-4.65805 -4.48839,-8.91756 -4.55471,-9.46556 -0.0664,-0.54801 -0.89014,-2.2109 -1.83076,-3.69534 -0.94064,-1.48442 -2.09257,-8.20996 -2.55987,-14.94564 -1.04132,-15.00917 2.01732,-21.93325 10.1001,-22.86442 6.25535,-0.72064 12.21509,3.39874 7.43298,5.13767 -6.1519,2.23707 -10.13511,8.35912 -9.04882,13.90776 0.59454,3.03685 1.28022,6.86669 1.52375,8.5107 0.41625,2.80996 2.25604,6.67463 9.91096,20.81892 2.3205,4.28769 2.59701,6.57406 1.02419,8.46919 -3.80709,4.58725 -7.45639,2.80081 -11.99782,-5.87328 z m 1029.6332,-6.97463 c -10.3443,-18.42845 -12.9947,-31.15422 -7.6098,-36.53907 3.7127,-3.7127 17.9191,-2.54283 25.4206,2.09331 10.9543,6.77017 9.3786,9.77082 -3.87,7.36941 -6.0277,-1.09253 -11.5186,-1.42709 -12.2023,-0.74345 -0.6836,0.68363 2.0619,8.11229 6.1011,16.50815 7.6251,15.84939 7.9457,20.77723 1.3512,20.77723 -2.5517,0 -5.6943,-3.23657 -9.1908,-9.46558 z m 43.2735,1.99275 c -2.1,-3.01403 -4.4634,-7.72191 -5.2521,-10.46194 -4.4067,-15.30921 -4.5198,-17.37139 -1.3202,-24.06989 3.2065,-6.71304 3.4458,-6.81487 15.5756,-6.62965 11.448,0.17477 18.4565,2.8445 18.4565,7.03051 0,0.96183 -5.3805,1.74876 -11.9566,1.74876 -11.7196,0 -11.9561,0.10861 -11.937,5.48007 0.01,3.01403 2.2654,10.30474 5.0104,16.20157 3.8255,8.21761 4.462,11.35898 2.7257,13.45107 -3.4608,4.17008 -7.0971,3.28515 -11.3023,-2.7505 z m 136.9423,2.92577 c -1.9539,-1.52611 -2.694,-4.13624 -1.9927,-7.02888 1.1392,-4.70048 2.4566,-5.26176 8.5879,-3.65839 4.4221,1.15639 4.6786,10.36528 0.3352,12.03199 -3.8164,1.4645 -3.1742,1.58908 -6.9304,-1.34472 z M 668.65498,934.3386 c -4.29747,-1.58974 -7.82936,-13.81194 -3.99128,-13.81194 1.08885,0 1.42023,-0.55951 0.7364,-1.24335 -0.68384,-0.68384 2.32227,-4.94335 6.68024,-9.46556 4.35799,-4.52223 10.76845,-12.60352 14.24551,-17.95844 l 6.32192,-9.73621 -4.58768,-3.71486 c -6.1948,-5.01626 -8.64477,-4.70331 -15.8465,2.02409 -5.29414,4.94549 -6.48093,5.33248 -8.58355,2.79898 -5.68076,-6.8449 11.15349,-22.2178 21.48917,-19.62373 7.38659,1.85392 14.73676,10.60826 14.73676,17.55204 0,8.42626 -4.71224,17.2235 -16.02392,29.91491 -5.43501,6.09797 -9.88185,11.57508 -9.88185,12.17137 0,0.59629 6.05298,1.34932 13.45107,1.6734 7.39809,0.32408 13.45108,1.47389 13.45108,2.55515 0,4.94797 -23.71193,10.00313 -32.19737,6.86415 z M 1707.4355,920.99792 c -2.8743,-5.55844 -2.7341,-6.00263 4.3715,-13.83819 9.5375,-10.5172 14.3159,-18.9079 14.3159,-25.13804 0,-7.84058 -2.0553,-11.31446 -6.6897,-11.30637 -5.0492,0.008 -17.2233,7.02556 -17.2233,9.927 0,1.11214 -0.8967,2.02205 -1.9927,2.02205 -1.096,0 -1.9647,-2.91439 -1.9302,-6.47644 0.065,-6.82843 5.9966,-12.92794 14.0839,-14.48543 2.2586,-0.43498 5.7946,-1.32662 7.8577,-1.98141 7.6725,-2.43513 14.5751,5.46972 16.5544,18.95778 1.1299,7.69975 -3.803,19.26439 -12.5943,29.52586 -7.5793,8.84695 -7.7862,9.42775 -3.9709,11.15696 5.6343,2.55365 3.7827,6.03043 -3.6017,6.76292 -5.1329,0.50915 -6.7263,-0.38065 -9.1806,-5.12669 z m -158.3897,-20.31058 c -13.4804,-3.35709 -16.9798,-14.45293 -8.0827,-25.62914 4.7441,-5.95942 26.4272,-18.2996 32.1546,-18.2996 1.6151,0 5.5403,-1.27191 8.7228,-2.82646 14.9434,-7.29957 50.1207,-8.39213 63.3839,-1.96862 8.8542,4.28816 9.2362,3.64949 5.0666,-8.46977 -2.1329,-6.19965 -3.8781,-13.37356 -3.8781,-15.94201 0,-5.53184 -1.0905,-5.67621 -11.1437,-1.47568 -9.8657,4.12215 -21.7343,2.61467 -27.4149,-3.48203 -9.8539,-10.57563 -1.9619,-52.76113 9.562,-51.11221 5.0608,0.72415 5.2906,4.6482 0.7589,12.95891 -4.6718,8.56729 -6.7067,24.75189 -3.7959,30.19066 2.7332,5.10691 10.9377,5.63921 21.1502,1.3722 6.6263,-2.7687 12.206,-11.28988 9.8687,-15.07157 -0.5737,-0.9283 -0.1176,-2.26012 1.0147,-2.95959 1.1316,-0.69948 1.5818,-2.04198 0.9999,-2.98336 -1.3664,-2.21079 6.2657,-4.66251 9.0865,-2.91902 1.3275,0.82036 1.6507,4.29218 0.8442,9.06575 -3.9207,23.20661 0.6116,48.63221 11.6905,65.58403 7.0521,10.79033 7.623,13.57119 3.0824,15.01237 -3.0432,0.96581 -5.8364,-0.8393 -11.8224,-7.63957 -16.2551,-18.46675 -41.898,-21.35598 -79.6419,-8.97338 -14.2788,4.68443 -30.9,14.0991 -32.5688,18.44782 -1.8246,4.75518 4.5449,7.86783 17.8316,8.71385 7.0095,0.44633 12.7444,1.57223 12.7444,2.50199 0,4.94069 -18.5954,8.64829 -29.6135,5.90443 z M 168.63494,850.84605 c -2.276,-0.92093 -7.55116,-4.89324 -11.72255,-8.82738 -6.87505,-6.48401 -7.48597,-7.88633 -6.53249,-14.995 0.82791,-6.17242 0.45988,-7.61489 -1.72853,-6.77513 -1.52921,0.58683 -2.78037,2.00728 -2.78037,3.15657 0,3.68644 -10.12517,15.51065 -18.43909,21.53323 -9.77985,7.08449 -21.21838,7.77003 -30.922726,1.8533 -6.72942,-4.10296 -18.34106,-20.32984 -18.45804,-25.79452 -0.0488,-2.28127 -1.09876,-1.85784 -3.98546,1.60727 -2.1556,2.58745 -3.9192,5.81125 -3.9192,7.16398 0,1.35272 -1.8745,4.15587 -4.1655,6.22922 -3.9721,3.59469 -4.2853,3.60577 -6.7472,0.23901 -1.4199,-1.94187 -4.6131,-9.84835 -7.0959,-17.56993 -4.1282,-12.8386 -4.4029,-16.36064 -3.2124,-41.18431 1.28,-26.68781 3.0074,-33.39376 7.4563,-28.94485 1.5747,1.57466 1.5525,3.34502 -0.08,6.39563 -1.2416,2.32003 -2.6981,11.89355 -3.2366,21.27446 -1.5528,27.0495 5.4247,56.19942 12.1218,50.64133 4.5459,-3.7728 7.8145,-16.23817 7.1799,-27.38194 -0.4744,-8.33126 0.027,-10.46195 2.4599,-10.46195 4.28577,0 5.44175,2.57564 6.4155,14.29441 1.18702,14.28518 8.97043,30.4777 16.52876,34.38626 10.587506,5.47501 20.341376,4.10292 30.077836,-4.23113 20.94958,-17.93207 24.00893,-50.90358 6.46373,-69.66137 -4.05491,-4.33516 -8.94186,-8.47846 -10.85988,-9.20735 -4.55918,-1.7326 -4.44418,-5.87232 0.24447,-8.80045 5.59807,-3.49604 14.31951,6.27597 24.34505,27.27762 3.89905,8.16781 5.3169,26.45212 2.90334,37.44103 -1.7496,7.96585 0.8311,8.25366 5.19674,0.57961 7.02686,-12.35197 22.20182,-17.04607 33.08942,-10.2356 3.57206,2.23441 8.27658,6.98515 10.4545,10.55721 12.4184,20.36782 -9.47166,48.17234 -31.05113,39.44077 z m 19.30111,-14.24756 c 3.191,-3.41598 6.33985,-8.35457 6.99745,-10.97466 2.7655,-11.01866 -12.27828,-20.8231 -23.42125,-15.26424 -6.11282,3.04947 -7.16681,5.20085 -6.62299,13.51861 0.63607,9.72828 0.73685,10.02356 4.9724,14.56988 5.61966,6.03201 11.25011,5.45584 18.07439,-1.84959 z m 899.35795,12.15054 c -5.1305,-2.5396 -9.7611,-6.93551 -12.5696,-11.93248 l -4.4466,-7.91157 -4.7505,5.4576 c -4.5134,5.18496 -5.0221,5.3083 -10.1842,2.4685 -12.5292,-6.89267 -19.223,-29.87852 -19.1504,-65.7608 0.081,-39.84627 2.231,-49.79491 9.4649,-43.79128 3.4636,2.87452 3.364,4.7514 -1.6894,31.83477 -2.9411,15.76107 -2.659,28.46781 0.9924,44.71446 2.604,11.58618 8.8957,23.0391 12.6567,23.0391 3.1716,0 5.5627,-6.67481 5.3295,-14.87741 -0.1969,-6.92597 2.7185,-11.2321 6.5968,-9.74384 1.5016,0.57621 4.6645,7.2975 7.0285,14.93623 5.3047,17.13956 11.2272,23.63428 21.5518,23.63428 5.626,0 8.7849,-1.37343 12.6044,-5.48007 10.9345,-11.75689 12.6024,-16.2546 12.346,-33.29131 -0.2364,-15.69871 -2.9402,-25.22346 -9.5568,-33.66542 -3.091,-3.94376 -7.1403,-2.91634 -7.1403,1.81172 0,4.88555 -3.4806,3.16214 -4.8807,-2.41672 -2.5981,-10.35157 5.0459,-20.0769 11.874,-15.10696 4.225,3.0753 12.338,17.81821 15.0616,27.36983 9.5624,33.53626 -6.425,72.74474 -29.6575,72.73386 -1.8466,-8.5e-4 -7.013,-1.81097 -11.4806,-4.02249 z m -746.63152,-2.18668 c -2.25076,-1.2639 -3.48732,-4.35462 -3.48732,-8.7163 0,-7.67762 3.00625,-10.95316 4.56876,-4.97805 0.8148,3.11578 2.72721,3.96308 8.94485,3.96308 10.77676,0 20.36317,-2.08324 20.36317,-4.42516 0,-5.46887 -8.56879,-13.06546 -18.57352,-16.46617 -15.51939,-5.27521 -21.68766,-16.36438 -13.3165,-23.94016 4.93814,-4.46894 15.09944,-4.38018 20.13381,0.17576 5.61975,5.08581 4.65109,6.79337 -3.85367,6.79337 -4.2014,0 -8.22315,0.58426 -8.93723,1.29834 -1.2595,1.2595 7.41066,6.67267 10.68746,6.67267 3.50754,0 15.58061,9.2861 19.59148,15.06895 8.09353,11.66917 4.09079,21.37416 -9.71733,23.5604 -16.29107,2.5794 -23.12168,2.83634 -26.40396,0.99319 z m -33.30591,-3.68034 c -3.43965,-3.43964 -4.05818,-6.61503 -4.05818,-20.83357 0,-9.22649 0.54429,-18.19387 1.20957,-19.92753 1.7877,-4.65865 6.54705,-3.82556 7.60722,1.33159 1.8533,9.01544 2.59553,41.4507 0.9715,42.45441 -0.91956,0.56832 -3.49809,-0.7929 -5.73011,-3.0249 z m 203.59551,2.02283 c -10.88451,-1.76897 -16.35268,-7.26255 -17.7736,-17.85617 -1.2848,-9.579 1.5406,-16.43351 10.01079,-24.2864 11.25574,-10.43545 30.24565,-11.16213 40.52622,-1.55083 l 5.06146,4.73199 -1.18269,-8.96738 c -2.60694,-19.76592 -2.79966,-26.62707 -0.88851,-31.63168 1.83604,-4.80791 2.20589,-4.95236 4.54122,-1.77337 1.39834,1.90345 3.12884,10.87083 3.84559,19.92751 2.61555,33.04971 5.58186,45.95042 11.52223,50.11124 4.95289,3.46911 3.30795,7.20684 -3.17166,7.20684 -3.46936,0 -5.69202,-2.09393 -8.72082,-8.21566 l -4.06477,-8.21566 -2.87663,6.88471 c -5.8546,14.01203 -14.59575,17.24819 -36.82883,13.63486 z m 24.8789,-14.24842 c 13.91467,-5.12111 8.5401,-22.80419 -7.53582,-24.79384 -12.04051,-1.49019 -21.52509,0.83475 -21.52509,13.45732 0,15.30202 12.11567,17.573 29.06091,11.33652 z m 56.43062,10.97126 c -9.46028,-4.10252 -15.49984,-10.13866 -17.00606,-16.99646 -1.35278,-6.15918 2.07035,-18.99662 6.15456,-23.08083 1.38074,-1.38074 2.81468,-3.19898 3.18653,-4.04056 1.05472,-2.38698 16.27138,-12.14813 19.60726,-12.57763 6.43154,-0.82811 8.27845,0.33643 11.04873,6.96666 3.20317,7.66625 1.7829,13.95825 -4.3436,19.24247 -4.47457,3.8594 -15.49982,7.75499 -21.94813,7.75499 -5.58469,0 -5.9064,1.97861 -1.1972,7.36308 5.03325,5.75504 17.28863,9.16736 29.33637,8.16826 9.49534,-0.78743 10.36586,-0.51952 9.46804,2.91377 -1.97667,7.55877 -21.21688,9.96262 -34.3065,4.28625 z m 13.43685,-37.1426 c 5.42762,-2.6683 5.92202,-7.50903 0.76693,-7.50903 -4.19815,0 -14.218,7.21833 -14.218,10.24268 0,2.12005 6.09955,0.88044 13.45107,-2.73365 z m 106.6282,38.12447 c -4.56536,-1.68882 -10.00999,-11.19493 -14.40819,-25.15608 -3.42297,-10.86546 -9.36984,-17.51866 -12.98043,-14.52214 -2.24916,1.86663 -7.98065,14.77659 -11.73247,26.42693 -1.37649,4.2744 -5.88102,4.52034 -9.215,0.50317 -3.19099,-3.84493 -1.78341,-25.35122 1.95397,-29.8545 2.45185,-2.95428 2.89884,-2.97106 4.4677,-0.1676 2.59999,4.64596 4.76138,3.80507 7.55501,-2.93936 7.05493,-17.03206 19.88675,-9.84768 28.59402,16.0094 6.35475,18.871 8.07453,20.63732 18.67866,19.18385 7.86165,-1.07754 8.43374,-0.86788 6.66253,2.44168 -3.96861,7.41537 -12.19043,10.80677 -19.5758,8.07475 z m -62.32658,-1.19802 c -4.97032,-1.16543 -16.89809,-32.18866 -14.85311,-38.63183 2.60315,-8.20183 7.3467,-3.21668 12.66509,13.31015 2.0839,6.47563 4.93716,14.26421 6.34064,17.30798 2.72869,5.91792 1.01482,9.22533 -4.15262,8.0137 z m 566.68473,0.018 c -7.5756,-1.48182 -11.6522,-8.11643 -11.8315,-19.25583 -0.1823,-11.32104 2.5973,-17.49872 11.5271,-25.62023 8.0373,-7.30976 13.0334,-8.63201 17.4643,-4.62207 3.2632,2.95317 3.3454,3.8594 0.8108,8.94024 -1.5514,3.10969 -5.8164,7.07556 -9.4779,8.81306 -10.2246,4.85192 -12.1585,8.04442 -9.1998,15.18734 1.3623,3.28904 3.9375,6.08626 5.7225,6.21605 3.7617,0.27351 2.5295,0.37815 16.3546,-1.38876 l 10.804,-1.38079 -4.8339,5.25531 c -2.6586,2.89043 -8.039,6.14568 -11.9565,7.23393 -7.3019,2.02844 -8.0398,2.05825 -15.3837,0.62175 z m -65.3845,-5.09736 c -0.7091,-2.24995 -1.4046,-7.05902 -4.2513,-29.39308 -0.8519,-6.68461 -2.0846,-14.75326 -6.7759,-44.35534 -1.5851,-10.00163 -1.5382,-14.58155 0.1819,-17.79572 2.239,-4.18356 2.4074,-4.20355 5.0432,-0.59888 1.4997,2.05102 2.784,4.67866 2.8538,5.8392 0.07,1.16054 0.3622,6.59375 0.6495,12.07383 0.2874,5.48007 1.081,12.2056 1.7636,14.94563 0.6826,2.74003 1.7224,10.15431 2.3107,16.47617 1.2879,13.84092 3.0478,21.38611 4.9883,21.38611 0.7899,0 3.5361,-4.48368 6.1029,-9.96375 2.5667,-5.48007 5.7104,-9.96376 6.9858,-9.96376 3.9027,0 11.8433,10.42998 15.7448,20.68083 2.2005,5.78195 5.2083,10.11526 7.4229,10.69439 4.7391,1.23928 4.9328,8.39791 0.236,8.71592 -8.9507,0.60601 -11.6134,-1.45629 -17.6719,-13.68718 -4.3724,-8.82705 -7.5573,-8.13487 -11.6292,2.52731 -4.8431,12.68133 -11.8945,18.95626 -13.9551,12.41832 z m 106.0463,-2.98912 c -4.1908,-4.72938 -9.4841,-21.05002 -9.4841,-29.24196 0,-3.67633 1.5954,-8.65432 3.5452,-11.06222 3.3596,-4.14909 4.3622,-4.28288 19.1753,-2.55899 13.9634,1.62499 15.9909,1.43199 19.011,-1.80974 1.8594,-1.99578 7.3905,-4.17832 12.2914,-4.85006 8.1875,-1.12224 9.1005,-0.80482 11.2493,3.91121 2.047,4.49272 1.7886,5.51925 -2.0737,8.23409 -2.4267,1.70584 -7.9992,4.06369 -12.3833,5.23969 -10.4192,2.79493 -12.9529,5.0732 -12.9529,11.64743 0,8.57483 6.3213,12.75438 19.5037,12.89569 6.2612,0.0672 13.9378,-0.58963 17.0591,-1.45945 7.0421,-1.96242 6.4638,1.52014 -1.2029,7.24415 -3.4259,2.5578 -8.9022,4.04768 -15.8164,4.30301 -22.5018,0.83102 -31.5253,-6.31019 -30.2279,-23.92256 l 0.7755,-10.52865 -8.0053,-0.76344 c -10.5092,-1.00221 -11.6403,2.59478 -5.5655,17.6998 4.819,11.98238 5.075,18.50932 0.7258,18.50932 -1.3937,0 -3.9247,-1.56929 -5.6243,-3.48732 z m 209.0204,-0.67728 c -3.9337,-5.61615 -4.1542,-13.45753 -0.5133,-18.25386 3.7801,-4.97965 5.197,-4.3326 5.197,2.37333 0,7.04083 2.1703,8.6321 11.7729,8.6321 9.4881,0 16.1257,-2.17613 16.1257,-5.28683 0,-3.33385 -8.7164,-11.09453 -21.245,-18.91568 -14.2375,-8.88791 -16.0192,-14.32837 -7.6499,-23.35896 2.74,-2.95654 4.9818,-4.76467 4.9818,-4.01806 0,0.7466 1.9577,0.30981 4.3502,-0.97067 3.7038,-1.98219 4.8882,-1.66369 7.9711,2.1434 5.6341,6.95788 4.6119,10.00828 -3.3539,10.00828 -3.836,0 -6.9746,0.81802 -6.9746,1.81783 0,0.9998 5.6581,5.85538 12.5736,10.79017 13.745,9.80825 20.7787,21.12564 18.5782,29.89295 -1.5613,6.22096 -4.7864,7.4289 -23.3809,8.75725 -14.2515,1.0181 -15.3397,0.80493 -18.4329,-3.61125 z m -1056.95459,0.85208 c -1.37001,-0.55281 -2.49094,-2.20077 -2.49094,-3.66211 0,-1.46135 -0.90574,-2.95892 -2.01275,-3.32792 -1.10702,-0.36902 -2.6963,-4.70326 -3.53174,-9.63165 -1.44628,-8.53186 -1.8647,-8.98972 -8.74322,-9.56702 -5.46875,-0.45897 -7.50014,-1.66124 -8.35952,-4.9475 -1.46558,-5.6044 0.69079,-7.60795 8.42494,-7.82786 5.7461,-0.1634 6.25129,-0.72531 6.25129,-6.95391 0,-9.0242 5.78579,-34.11092 8.21302,-35.61104 1.05893,-0.65446 3.14305,-0.17935 4.63139,1.05594 2.26082,1.87631 2.27804,4.11781 0.10462,13.62263 -1.43079,6.25722 -2.63023,15.08734 -2.66538,19.62248 -0.0585,7.54746 0.43145,8.34477 5.78633,9.41576 7.61062,1.5221 7.53237,6.56181 -0.12793,8.24431 -4.02273,0.88355 -5.97825,2.5225 -5.97825,5.01049 0,7.04165 3.93679,14.00078 9.01183,15.9303 4.34434,1.65171 4.78105,2.53004 2.95475,5.94253 -2.05896,3.84723 -6.19033,4.81431 -11.4684,2.68457 z m 1031.69179,-2.18738 c -1.6137,-1.92893 -3.0928,-5.74006 -3.287,-8.4692 -2.37,-33.29485 -2.0918,-37.84245 2.3151,-37.84245 5.122,0 6.736,5.526 8.0099,27.42483 1.0568,18.16584 0.7923,22.39397 -1.4008,22.39397 -1.4868,0 -4.0236,-1.57823 -5.6372,-3.50715 z m 230.9896,-2.70335 c -7.5947,-2.78656 -12.5879,-13.23855 -11.2148,-23.47533 1.4223,-10.60481 4.8397,-15.15878 8.8668,-11.81648 2.1273,1.76554 3.2408,1.79822 4.2747,0.12554 2.1051,-3.40627 18.4889,-10.34114 24.5489,-10.39092 6.2142,-0.051 17.5898,10.25362 17.5898,15.93392 0,2.04305 0.8967,4.26884 1.9927,4.94621 1.1837,0.7315 1.9928,-1.60197 1.9928,-5.74674 0,-6.48583 6.7273,-21.19391 9.6624,-21.1249 3.0928,0.0727 5.675,3.21783 5.1948,6.32707 -0.2863,1.85264 -1.5933,6.61896 -2.9043,10.59183 -3.5859,10.86566 -1.1819,20.21788 5.5321,21.52091 6.9003,1.33912 16.4842,-0.50676 17.5611,-3.38233 0.709,-1.89353 1.7905,-9.66864 2.5934,-18.64779 0.1235,-1.37001 1.9847,-2.49093 4.1382,-2.49093 4.007,0 8.5197,6.059 7.8089,10.48448 -1.048,6.52459 5.3956,14.75557 14.8363,18.95149 7.6468,3.39872 5.6907,7.48678 -3.4425,7.19467 -4.6402,-0.14847 -9.1181,-1.89071 -12.1287,-4.71913 l -4.7728,-4.48388 -8.7193,4.22095 c -4.7958,2.32151 -11.2951,4.22094 -14.4433,4.22094 -7.9234,0 -18.3527,-7.60705 -19.7059,-14.37344 -1.2306,-6.15281 -5.1959,-7.63445 -5.1959,-1.94139 0,5.238 -9.6664,13.69092 -19.7082,17.23379 -9.7239,3.43085 -16.648,3.67007 -24.3572,0.84156 z m 29.0057,-13.91387 c 5.5013,-3.24577 7.0886,-5.4613 7.0886,-9.89363 0,-13.95618 -20.3228,-12.44097 -32.852,2.44937 -4.8588,5.77407 -4.9459,6.2577 -1.5883,8.80476 5.4178,4.10988 19.2461,3.42207 27.3517,-1.3605 z m 95.1683,7.7693 c -1.3152,-1.31522 -2.3913,-3.09128 -2.3913,-3.9468 0,-0.85553 -3.228,-6.60175 -7.1733,-12.76935 -6.9356,-10.84201 -7.0932,-11.50077 -4.751,-19.86647 3.589,-12.81825 7.7959,-15.64226 24.5554,-16.4831 12.2733,-0.61578 15.038,-0.11159 19.7511,3.60212 3.014,2.37498 5.4801,5.97779 5.4801,8.00628 0,3.45525 -0.3884,3.49435 -6.1515,0.61934 -7.6322,-3.80737 -25.9123,-2.70884 -30.4512,1.82991 -2.864,2.86394 -2.856,4.0059 0.09,12.80627 1.7785,5.31408 4.7467,11.9038 6.5964,14.64384 5.2874,7.83291 6.0701,11.50477 2.7263,12.78797 -4.3161,1.65626 -5.582,1.46822 -8.2801,-1.23001 z M 627.54465,770.44153 c -3.63741,-5.55139 -1.01218,-14.35491 3.7372,-12.53242 1.7266,0.66257 3.51431,1.20466 3.97267,1.20466 0.45836,0 0.83339,3.04263 0.83339,6.76143 0,8.26571 -4.53211,10.6881 -8.54326,4.56633 z m -319.05119,-0.53062 c -2.17666,-5.67226 -1.27593,-8.80439 2.53194,-8.80439 4.78109,0 9.00432,5.03248 7.5041,8.94199 -1.52365,3.97062 -8.49626,3.87501 -10.03604,-0.1375 z M 1426.078,758.16275 c -4.2719,-4.27191 -4.5976,-5.4792 -2.4192,-8.96738 5.6752,-9.08732 13.4171,-1.25353 11.7715,11.91115 -0.4247,3.3975 -4.1991,2.20948 -9.3523,-2.94377 z"
       id="path3050"
       inkscape:connector-curvature="0"
       sodipodi:nodetypes="cssssssssssssssssssscsssscssssssscssssssssssssscssssssssssssssssssscsssscsssssssssssssssscssssscsssssssssssssscssssssssssssscsssccsssssscsssssssssccssssssssssssssssssssssssssssscssssssscsssssscsssscssssssssssscssssscsssssssssssssssssssssssssssscssssssscssscssscsssssssssssssssssssssssssssssccsssssssssssssssssssssscsssssssssscsscssssssssssssscsssssssssssssssssssssssscssssssssssscsscssssssssssscsssssssssssssssccsssssssscsssssssssssssssssssscssssssssssssccsssssssssscssssssscssssssssscsssssssssssscssssssssssccsssssssssssssscsssssssscssssssssssssssssssssssssssscsssssssssssssssssssscscsssssscscsssssccsssssscsscssssssssscssscscsssssccssssssssssssssssssssssscssccssss"
       inkscape:export-filename="/home/peter/workspace/android-studio/illumina/resources/gfx/info_de.png"
       inkscape:export-xdpi="120"
       inkscape:export-ydpi="120" />
  </g>
</svg>
